<svg width="154" height="143" viewBox="0 0 154 143" fill="none" xmlns="http://www.w3.org/2000/svg">
<path d="M82.9299 142.053C81.3589 142.053 79.8522 141.433 78.7413 140.33C77.6304 139.226 77.0064 137.729 77.0064 136.169C77.0064 134.608 77.6304 133.111 78.7413 132.007C79.8522 130.904 81.3589 130.284 82.9299 130.284C96.1959 130.286 109.079 125.864 119.514 117.726C129.949 109.589 137.333 98.207 140.482 85.4045C143.631 72.6019 142.363 59.1198 136.881 47.1183C131.399 35.1168 122.021 25.2907 110.249 19.2145C98.4774 13.1383 84.9932 11.1636 71.9572 13.6069C58.9212 16.0503 47.0881 22.7701 38.3539 32.6898C29.6197 42.6095 24.4899 55.1547 23.7866 68.3155C23.0834 81.4762 26.8472 94.4905 34.4751 105.273C35.3745 106.546 35.7298 108.122 35.4634 109.655C35.197 111.187 34.3305 112.553 33.0535 113.453C32.4168 113.905 31.6964 114.226 30.9339 114.4C30.1713 114.573 29.3818 114.595 28.6107 114.464C27.8397 114.333 27.1025 114.051 26.4416 113.635C25.7808 113.219 25.2094 112.677 24.7605 112.041C15.6076 99.1024 11.0909 83.4863 11.9341 67.6944C12.7774 51.9026 18.9317 36.8489 29.4111 24.9451C39.8905 13.0414 54.0884 4.97665 69.7302 2.04291C85.3721 -0.890839 101.552 1.47624 115.679 8.76492C129.806 16.0536 141.061 27.842 147.641 42.2415C154.222 56.641 155.747 72.8181 151.972 88.1811C148.198 103.544 139.342 117.204 126.823 126.972C114.305 136.74 98.8481 142.051 82.9299 142.053V142.053Z" fill="white"/>
<path d="M35.5414 118.514H5.92357C4.35254 118.514 2.84586 117.894 1.73497 116.79C0.624088 115.687 0 114.19 0 112.629C0 111.069 0.624088 109.572 1.73497 108.468C2.84586 107.364 4.35254 106.744 5.92357 106.744H29.6178V83.205C29.6178 81.6443 30.2419 80.1474 31.3528 79.0438C32.4637 77.9402 33.9704 77.3202 35.5414 77.3202C37.1124 77.3202 38.6191 77.9402 39.73 79.0438C40.8409 80.1474 41.465 81.6443 41.465 83.205V112.629C41.465 114.19 40.8409 115.687 39.73 116.79C38.6191 117.894 37.1124 118.514 35.5414 118.514Z" fill="white"/>
<path d="M65.1592 94.9747C64.3796 94.9791 63.6068 94.8307 62.8851 94.5378C62.1634 94.245 61.507 93.8135 60.9535 93.268C60.3983 92.721 59.9576 92.0701 59.6569 91.353C59.3561 90.6359 59.2013 89.8667 59.2013 89.0898C59.2013 88.3129 59.3561 87.5438 59.6569 86.8266C59.9576 86.1095 60.3983 85.4586 60.9535 84.9116L77.0064 69.0225V42.011C77.0064 40.4503 77.6304 38.9534 78.7413 37.8498C79.8522 36.7462 81.3589 36.1262 82.9299 36.1262C84.501 36.1262 86.0076 36.7462 87.1185 37.8498C88.2294 38.9534 88.8535 40.4503 88.8535 42.011V71.4353C88.858 72.2097 88.7086 72.9775 88.4138 73.6945C88.119 74.4115 87.6847 75.0636 87.1357 75.6135L69.365 93.268C68.8115 93.8135 68.155 94.245 67.4333 94.5378C66.7116 94.8307 65.9388 94.9791 65.1592 94.9747Z" fill="white"/>
</svg>
