<svg width="146" height="168" viewBox="0 0 146 168" fill="none" xmlns="http://www.w3.org/2000/svg">
<path d="M27.2361 135.568C32.9641 135.368 38.3632 138.447 41.0571 143.506L44.7075 150.361C48.7001 157.859 59.3787 158.046 63.6313 150.693V150.693C67.7993 143.486 78.204 143.486 82.3716 150.694V150.694C86.6243 158.048 97.304 157.861 101.297 150.363L104.946 143.51C107.64 138.451 113.039 135.371 118.767 135.571V135.571C130.546 135.982 138.343 123.28 132.443 113.077L118.717 89.3407C117.957 88.0252 118.505 86.3406 119.894 85.7241V85.7241C120.906 85.2746 121.514 84.2238 121.399 83.1217L120.536 74.8563C120.177 71.4231 121.102 67.9764 123.13 65.183V65.183C126.691 60.2765 126.692 53.6275 123.13 48.721V48.721C121.102 45.927 120.177 42.4797 120.537 39.0459V39.0459C121.168 33.0165 117.842 27.2659 112.301 24.8054V24.8054C109.138 23.4007 106.606 20.8728 105.198 17.7114V17.7114C102.733 12.1794 96.9666 8.86273 90.9431 9.49003V9.49003C87.5065 9.84793 84.0446 8.92613 81.245 6.90115V6.90115C76.3278 3.3445 69.6758 3.34533 64.7592 6.90286V6.90286C61.9594 8.9288 58.497 9.85096 55.0597 9.49222V9.49222C49.0361 8.86357 43.2701 12.1796 40.8055 17.7117V17.7117C39.397 20.8731 36.8661 23.4006 33.703 24.8052V24.8052C28.1615 27.2661 24.8343 33.0167 25.4643 39.0472V39.0472C25.823 42.4803 24.8986 45.9267 22.8714 48.7204V48.7204C19.3106 53.6274 19.3112 60.2755 22.8729 65.1818V65.1818C24.9013 67.9761 25.826 71.4238 25.4664 74.858L24.6014 83.1198C24.4859 84.2231 25.0941 85.2752 26.1079 85.7256V85.7256C27.498 86.3431 28.046 88.0296 27.2844 89.3463L13.5613 113.072C7.66019 123.275 15.457 135.979 27.2361 135.568V135.568ZM108.45 90.8068C109.869 90.1775 111.535 90.7193 112.312 92.063L123.17 110.841C127.787 118.826 121.816 128.772 112.598 128.45V128.45C108.114 128.293 103.933 130.706 101.825 134.665V134.665C97.4928 142.801 85.9039 143.006 81.2898 135.026L80.608 133.847C78.3694 129.976 78.3694 125.204 80.608 121.332L88.7609 107.232C89.7713 105.485 91.7146 104.495 93.7221 104.705V104.705V104.705C98.0996 105.162 102.274 102.75 104.065 98.7296L106.907 92.3477C107.213 91.6607 107.763 91.1117 108.45 90.8068V90.8068ZM32.183 80.868C31.9563 80.7672 31.8203 80.5319 31.8461 80.2852L32.6987 72.1323C33.003 69.2223 32.219 66.3004 30.5004 63.9325V63.9325C27.4806 59.7716 27.481 54.1312 30.5008 49.9703V49.9703C32.219 47.6029 33.003 44.6813 32.6988 41.772V41.772C32.1646 36.6635 34.9889 31.7886 39.6828 29.7028V29.7028C42.3646 28.5111 44.5141 26.3664 45.7091 23.686V23.686C47.8008 18.9939 52.6852 16.1807 57.7948 16.7133V16.7133C60.7071 17.0169 63.6378 16.2347 66.0102 14.5184V14.5184C70.1797 11.5021 75.8237 11.5021 79.9933 14.5184V14.5184C82.3657 16.2347 85.2964 17.0169 88.2087 16.7133V16.7133C93.3182 16.1807 98.2026 18.9939 100.294 23.686V23.686C101.489 26.3664 103.639 28.5111 106.321 29.7028V29.7028C111.015 31.7886 113.839 36.6635 113.305 41.772V41.772C113 44.6813 113.784 47.6029 115.503 49.9703V49.9703C118.522 54.1312 118.523 59.7716 115.503 63.9325V63.9325C113.784 66.3004 113 69.2223 113.305 72.1322L114.157 80.2852C114.183 80.5319 114.047 80.7672 113.82 80.868V80.868L106.317 84.2023C103.635 85.394 101.489 87.5369 100.294 90.2173V90.2173C98.2026 94.9095 93.3182 97.7226 88.2087 97.19V97.19C85.2964 96.8864 82.3657 97.6686 79.9933 99.3849V99.3849C75.8237 102.401 70.1797 102.401 66.0102 99.3849V99.3849C63.6378 97.6686 60.7071 96.8864 57.7948 97.19V97.19C52.6852 97.7226 47.8008 94.9095 45.7091 90.2173V90.2173C44.5142 87.5369 42.3687 85.394 39.6868 84.2023L32.183 80.868V80.868ZM40.8084 96.1932C43.2713 101.724 49.038 105.04 55.0602 104.413V104.413C58.4963 104.055 61.9568 104.976 64.756 107L71.9749 112.222C72.5877 112.665 73.4157 112.665 74.0285 112.222V112.222C75.5598 111.114 77.5181 112.882 76.5719 114.518L69.0138 127.59L64.7137 135.026C60.0996 143.006 48.5103 142.8 44.178 134.664V134.664C42.0699 130.705 37.8894 128.293 33.4068 128.45V128.45C24.19 128.772 18.2188 118.827 22.8354 110.844L33.6961 92.0616C34.4726 90.7188 36.1368 90.1777 37.5546 90.8071V90.8071C38.241 91.1118 38.79 91.6602 39.0955 92.3463L40.8084 96.1932Z" fill="#333333"/>
<path d="M53.0348 75C53.2268 72.664 53.6268 70.232 54.2348 67.704C54.8428 65.176 55.5788 62.696 56.4428 60.264C57.3388 57.832 58.3308 55.544 59.4188 53.4C60.5068 51.224 61.6108 49.352 62.7308 47.784H48.2828V41.688H71.5627V46.872C70.5388 47.992 69.4028 49.544 68.1548 51.528C66.9388 53.512 65.7708 55.768 64.6508 58.296C63.5628 60.792 62.6028 63.48 61.7708 66.36C60.9708 69.24 60.4748 72.12 60.2828 75H53.0348ZM75.852 57.672H83.868V48.792H90.396V57.672H98.412V63.672H90.396V72.552H83.868V63.672H75.852V57.672Z" fill="#333333"/>
</svg>
