<svg width="163" height="142" viewBox="0 0 163 142" fill="none" xmlns="http://www.w3.org/2000/svg">
<path fill-rule="evenodd" clip-rule="evenodd" d="M162.732 124.68C162.732 134.248 154.828 142 145.073 142H17.9324C8.1779 142 0.273987 134.248 0.273987 124.68V24.2266C0.273987 16.5748 6.59924 10.3709 14.4007 10.3709H85.6384L114.242 0.2078C116.053 -0.439954 118.059 0.477987 118.72 2.24805L121.732 10.3709H134.478C142.28 10.3709 148.605 16.5748 148.605 24.2266V31.1545C156.406 31.1545 162.732 37.3584 162.732 45.0102V124.68ZM14.4007 17.2988C10.5018 17.2988 7.33736 20.4025 7.33736 24.2266C7.33736 28.0508 10.5018 31.1545 14.4007 31.1545H26.5674H27.2349C27.2808 31.1372 27.3091 31.0991 27.355 31.0817L66.14 17.2988H14.4007ZM117.095 17.9258L113.345 7.79725H113.341L106.097 10.3709H106.108L86.6343 17.2988H86.599L47.6127 31.1545H121.997L117.095 17.9258ZM141.542 24.2266C141.542 20.4025 138.377 17.2988 134.478 17.2988H124.296L129.431 31.1545H141.542V24.2266ZM148.605 38.0823H14.4007C11.8155 38.0823 9.42106 37.3514 7.33736 36.1599V124.68C7.33736 130.42 12.084 135.072 17.9324 135.072H145.073C150.925 135.072 155.668 130.42 155.668 124.68V100.433H141.542C133.74 100.433 127.415 94.229 127.415 86.5772C127.415 78.9254 133.74 72.7216 141.542 72.7216H155.668V45.0102C155.668 41.186 152.504 38.0823 148.605 38.0823ZM155.668 93.5051V79.6494H141.542C137.643 79.6494 134.478 82.7531 134.478 86.5772C134.478 90.4014 137.643 93.5051 141.542 93.5051H155.668ZM141.542 83.1133H148.605V90.0412H141.542V83.1133Z" fill="#333333"/>
</svg>
