<svg width="146" height="167" viewBox="0 0 146 167" fill="none" xmlns="http://www.w3.org/2000/svg">
<path d="M27.2361 134.629C32.9641 134.429 38.3632 137.508 41.0571 142.567L44.7075 149.423C48.7001 156.921 59.3787 157.107 63.6313 149.754V149.754C67.7993 142.547 78.204 142.548 82.3716 149.755V149.755C86.6243 157.109 97.304 156.923 101.297 149.424L104.946 142.571C107.64 137.512 113.039 134.432 118.767 134.632V134.632C130.546 135.044 138.343 122.341 132.443 112.139L118.717 88.402C117.957 87.0865 118.505 85.4019 119.894 84.7854V84.7854C120.906 84.3359 121.514 83.2851 121.399 82.183L120.536 73.9175C120.177 70.4844 121.102 67.0377 123.13 64.2443V64.2443C126.691 59.3378 126.692 52.6887 123.13 47.7823V47.7823C121.102 44.9883 120.177 41.541 120.537 38.1072V38.1072C121.168 32.0778 117.842 26.3272 112.301 23.8667V23.8667C109.138 22.462 106.606 19.9341 105.198 16.7726V16.7726C102.733 11.2407 96.9666 7.92401 90.9431 8.55131V8.55131C87.5065 8.90921 84.0446 7.9874 81.245 5.96243V5.96243C76.3278 2.40578 69.6758 2.40661 64.7592 5.96414V5.96414C61.9594 7.99008 58.497 8.91224 55.0597 8.5535V8.5535C49.0361 7.92485 43.2701 11.2409 40.8055 16.773V16.773C39.397 19.9344 36.8661 22.4619 33.703 23.8665V23.8665C28.1615 26.3274 24.8343 32.078 25.4643 38.1085V38.1085C25.823 41.5415 24.8986 44.988 22.8714 47.7817V47.7817C19.3106 52.6887 19.3112 59.3368 22.8729 64.2431V64.2431C24.9013 67.0374 25.826 70.4851 25.4664 73.9192L24.6014 82.1811C24.4859 83.2844 25.0941 84.3365 26.1079 84.7868V84.7868C27.498 85.4044 28.046 87.0908 27.2844 88.4076L13.5613 112.134C7.66019 122.336 15.457 135.04 27.2361 134.629V134.629ZM108.45 89.8681C109.869 89.2388 111.535 89.7805 112.312 91.1243L123.17 109.903C127.787 117.887 121.816 127.833 112.598 127.511V127.511C108.114 127.354 103.933 129.767 101.825 133.726V133.726C97.4928 141.862 85.9039 142.067 81.2898 134.088L80.608 132.909C78.3694 129.037 78.3694 124.265 80.608 120.393L88.7609 106.294C89.7713 104.546 91.7146 103.556 93.7221 103.766V103.766V103.766C98.0996 104.223 102.274 101.811 104.065 97.7909L106.907 91.409C107.213 90.722 107.763 90.173 108.45 89.8681V89.8681ZM32.183 79.9293C31.9563 79.8285 31.8203 79.5932 31.8461 79.3464L32.6987 71.1935C33.003 68.2836 32.219 65.3617 30.5004 62.9938V62.9938C27.4806 58.8329 27.481 53.1924 30.5008 49.0315V49.0315C32.219 46.6642 33.003 43.7426 32.6988 40.8333V40.8333C32.1646 35.7247 34.9889 30.8499 39.6828 28.7641V28.7641C42.3646 27.5724 44.5141 25.4277 45.7091 22.7473V22.7473C47.8008 18.0551 52.6852 15.242 57.7948 15.7746V15.7746C60.7071 16.0782 63.6378 15.296 66.0102 13.5797V13.5797C70.1797 10.5634 75.8237 10.5634 79.9933 13.5797V13.5797C82.3657 15.296 85.2964 16.0782 88.2087 15.7746V15.7746C93.3182 15.242 98.2026 18.0551 100.294 22.7473V22.7473C101.489 25.4277 103.639 27.5724 106.321 28.7641V28.7641C111.015 30.8499 113.839 35.7247 113.305 40.8333V40.8333C113 43.7426 113.784 46.6642 115.503 49.0315V49.0315C118.522 53.1924 118.523 58.8329 115.503 62.9938V62.9938C113.784 65.3617 113 68.2836 113.305 71.1935L114.157 79.3464C114.183 79.5932 114.047 79.8285 113.82 79.9293V79.9293L106.317 83.2636C103.635 84.4553 101.489 86.5982 100.294 89.2786V89.2786C98.2026 93.9707 93.3182 96.7838 88.2087 96.2512V96.2512C85.2964 95.9477 82.3657 96.7299 79.9933 98.4461V98.4461C75.8237 101.463 70.1797 101.463 66.0102 98.4461V98.4461C63.6378 96.7299 60.7071 95.9477 57.7948 96.2512V96.2512C52.6852 96.7838 47.8008 93.9707 45.7091 89.2786V89.2786C44.5142 86.5982 42.3687 84.4553 39.6868 83.2636L32.183 79.9293V79.9293ZM40.8084 95.2545C43.2713 100.786 49.038 104.102 55.0602 103.475V103.475C58.4963 103.117 61.9568 104.037 64.756 106.062L71.9749 111.283C72.5877 111.726 73.4157 111.726 74.0285 111.283V111.283C75.5598 110.175 77.5181 111.943 76.5719 113.579L69.0138 126.651L64.7137 134.088C60.0996 142.067 48.5103 141.862 44.178 133.726V133.726C42.0699 129.767 37.8894 127.354 33.4068 127.511V127.511C24.19 127.833 18.2188 117.889 22.8354 109.905L33.6961 91.1229C34.4726 89.7801 36.1368 89.239 37.5546 89.8684V89.8684C38.241 90.1731 38.79 90.7215 39.0955 91.4076L40.8084 95.2545Z" fill="white"/>
<path d="M53.0348 74.0613C53.2268 71.7253 53.6268 69.2933 54.2348 66.7653C54.8428 64.2373 55.5788 61.7573 56.4428 59.3253C57.3388 56.8933 58.3308 54.6053 59.4188 52.4613C60.5068 50.2853 61.6108 48.4133 62.7308 46.8453H48.2828V40.7493H71.5627V45.9333C70.5388 47.0533 69.4028 48.6053 68.1548 50.5893C66.9388 52.5733 65.7708 54.8293 64.6508 57.3573C63.5628 59.8533 62.6028 62.5413 61.7708 65.4213C60.9708 68.3013 60.4748 71.1813 60.2828 74.0613H53.0348ZM75.852 56.7333H83.868V47.8533H90.396V56.7333H98.412V62.7333H90.396V71.6133H83.868V62.7333H75.852V56.7333Z" fill="white"/>
</svg>
