<svg width="41" height="41" viewBox="0 0 41 41" fill="none" xmlns="http://www.w3.org/2000/svg">
<path fill-rule="evenodd" clip-rule="evenodd" d="M20.9291 35.9237C17.6951 35.9237 14.4611 35.0417 11.8152 33.2777L5.64126 35.3357L7.69923 29.4558C5.93525 26.8098 4.75927 23.5758 4.75927 20.0479C4.75927 19.4599 4.75927 18.8719 4.75927 18.5779C5.64126 10.346 12.4032 3.87807 20.9291 3.87807C29.455 3.87807 36.2169 10.346 37.0989 18.8719C37.0989 19.1659 37.0989 19.4599 37.0989 20.0479C37.0989 28.8678 29.749 35.9237 20.9291 35.9237ZM40.0388 19.4599C39.7448 9.17001 31.2189 0.93811 20.9291 0.93811C10.6392 0.93811 2.1133 8.87601 1.52531 19.1659C1.52531 19.4599 1.52531 19.7539 1.52531 20.0479C1.52531 23.5758 2.70129 27.1038 4.46527 29.7498L0.937317 40.0396L11.5212 36.8057C14.1672 38.2757 17.4011 39.1576 20.9291 39.1576C31.5129 39.1576 40.0388 30.6317 40.0388 20.0479C40.0388 19.7539 40.0388 19.7539 40.0388 19.4599Z" fill="black"/>
<path fill-rule="evenodd" clip-rule="evenodd" d="M29.7502 23.8696C29.1622 23.5756 26.8103 22.3996 26.5163 22.3996C25.9283 22.1056 25.6343 22.1056 25.3403 22.6936C25.0463 22.9876 24.1643 24.1636 23.8703 24.4576C23.5763 24.7516 23.2823 24.7516 22.9883 24.4576C22.4003 24.1636 20.9303 23.8696 19.1664 22.1056C17.6964 20.9297 16.8144 19.4597 16.5204 18.8717C16.2264 18.5777 16.5204 18.2837 16.5204 17.9897C16.8144 17.6957 17.1084 17.4017 17.4024 17.1077C17.4024 17.1077 17.4024 17.1077 17.4024 16.8137C17.6964 16.8137 17.6964 16.5197 17.6964 16.5197C17.9904 15.9317 17.9904 15.9317 17.6964 15.6377C17.6964 15.3437 16.8144 12.9918 16.2264 12.1098C15.9324 11.2278 15.6384 11.2278 15.3444 11.2278C15.0504 11.2278 14.7564 11.2278 14.4624 11.2278C14.1684 11.2278 13.5804 11.5218 12.9924 11.8158C12.6984 12.4038 11.5225 13.5798 11.5225 15.6377C11.5225 16.2257 11.5225 16.8137 11.8165 17.4017C12.1105 18.8717 13.2864 20.3417 13.2864 20.6357C13.5804 20.9297 16.5204 25.9276 21.5183 27.6916C26.2223 29.4556 26.2223 28.8676 27.1043 28.8676C27.9863 28.8676 30.0442 27.6916 30.3382 26.5156C30.6322 25.6336 30.6322 24.4576 30.6322 24.4576C30.3382 24.1636 30.0442 24.1636 29.7502 23.8696Z" fill="black"/>
</svg>
