<svg width="44" height="44" viewBox="0 0 44 44" fill="none" xmlns="http://www.w3.org/2000/svg">
<path d="M4.84659 36.7032C6.5348 38.0308 14.5534 40.9495 27.5498 28.0771C41.2403 14.517 38.224 5.85684 36.6563 4.37411L27.7261 13.441C28.9913 14.6871 27.8889 16.3155 25.3784 19.4426C23.7172 21.5117 21.4798 23.8947 18.9536 25.9657C17.1808 27.4187 15.3175 28.706 13.9925 27.401L4.84659 36.7032Z" fill="black"/>
<path d="M33.4102 1.14542C32.8241 0.568184 31.9335 0.631665 31.4065 1.16676L31.3981 1.16683C31.3981 1.16683 24.4421 8.23769 24.4379 8.24197C23.8857 8.80255 23.9048 9.69196 24.4569 10.2357L27.0253 12.7654L35.9786 3.67513C35.9786 3.67513 33.4203 1.14763 33.4162 1.14767L33.4102 1.14542Z" fill="black"/>
<path d="M10.7224 24.1801C10.1364 23.6029 9.24576 23.6664 8.71872 24.2015L8.71036 24.2016C8.71036 24.2016 1.55354 31.4763 1.54933 31.4806C0.997194 32.0411 1.01622 32.9305 1.56831 33.4743L4.13672 36.004L13.2909 26.7099C13.2909 26.7099 10.7326 24.1824 10.7284 24.1824L10.7224 24.1801Z" fill="black"/>
</svg>
