<?xml version="1.0" standalone="no"?>
<!DOCTYPE svg PUBLIC "-//W3C//DTD SVG 20010904//EN"
 "http://www.w3.org/TR/2001/REC-SVG-20010904/DTD/svg10.dtd">
<svg version="1.0" xmlns="http://www.w3.org/2000/svg"
 width="156.000000pt" height="156.000000pt" viewBox="0 0 156.000000 156.000000"
 preserveAspectRatio="xMidYMid meet">
<metadata>
Created by potrace 1.14, written by Peter Selinger 2001-2017
</metadata>
<g transform="translate(0.000000,156.000000) scale(0.100000,-0.100000)"
fill="#000000" stroke="none">
<path d="M232 1383 c-6 -14 -9 -346 -3 -373 0 -3 25 -6 54 -5 l52 0 5 147 c7
192 5 191 153 192 l105 0 -14 28 -15 28 -164 0 c-147 0 -165 -2 -173 -17z"/>
<path d="M402 1276 c-11 -14 -9 -252 1 -263 10 -10 337 -11 337 -1 0 7 -52
131 -93 220 l-26 56 -105 0 c-67 0 -109 -4 -114 -12z"/>
<path d="M877 1015 c-7 -16 14 -38 113 -125 35 -30 71 -62 80 -70 9 -8 47 -42
85 -75 37 -33 77 -69 89 -80 74 -66 96 -85 100 -85 2 0 6 14 8 30 5 31 -6 43
-156 173 -35 31 -149 131 -160 142 -111 102 -147 123 -159 90z"/>
<path d="M1410 583 l0 -423 70 0 c39 0 70 4 70 9 0 5 -6 24 -14 42 -11 27 -14
110 -15 414 l0 379 -55 1 -56 1 0 -423z"/>
<path d="M62 933 c-10 -22 -8 -190 2 -200 4 -5 237 -8 518 -8 l510 -1 -34 31
c-18 16 -67 59 -107 95 -41 36 -83 73 -93 83 -16 16 -50 17 -403 17 -356 0
-385 -1 -393 -17z"/>
<path d="M1325 796 c-17 -32 -18 -35 -1 -51 22 -22 23 -20 28 38 5 56 -2 59
-27 13z"/>
<path d="M226 655 c-3 -8 -3 -22 0 -30 5 -13 56 -15 370 -15 l364 0 0 30 0 29
-364 0 c-312 0 -365 -2 -370 -14z"/>
<path d="M1170 534 c-58 -99 -58 -96 -19 -92 29 3 38 11 70 68 35 60 37 66 22
82 -9 10 -19 18 -22 18 -3 0 -26 -34 -51 -76z"/>
<path d="M154 547 c-21 -4 -54 -18 -72 -30 -40 -27 -82 -108 -82 -158 0 -74
49 -150 114 -180 38 -17 74 -19 474 -19 476 0 475 0 540 62 17 18 32 36 32 40
0 17 -64 7 -86 -13 -13 -12 -40 -24 -61 -28 -21 -3 -221 -6 -444 -5 -384 1
-408 2 -440 20 -98 57 -94 196 7 245 40 19 58 20 471 17 337 -2 433 -6 446
-16 13 -11 17 -10 26 7 17 30 14 37 -21 52 -26 10 -124 14 -449 14 -229 0
-434 -3 -455 -8z"/>
<path d="M328 440 c-14 -4 -19 -9 -11 -13 20 -12 26 -81 10 -119 l-15 -35 80
0 c77 -1 80 0 74 21 -16 54 -17 77 -7 107 6 18 9 34 7 37 -7 6 -112 8 -138 2z"/>
<path d="M713 437 c-3 -4 1 -14 7 -22 12 -15 10 -96 -4 -126 -6 -15 2 -17 73
-16 45 0 81 2 81 4 0 2 -5 14 -12 26 -13 25 -12 91 3 119 8 14 6 18 -8 19 -10
0 -44 1 -76 2 -33 1 -61 -2 -64 -6z"/>
<path d="M142 420 c-66 -62 -4 -170 80 -141 40 14 57 38 58 79 0 69 -88 109
-138 62z"/>
<path d="M535 415 c-27 -27 -33 -79 -12 -106 37 -48 107 -46 138 5 51 81 -59
169 -126 101z"/>
<path d="M932 422 c-33 -26 -39 -80 -13 -114 25 -31 71 -44 100 -29 19 10 19
13 5 47 -13 31 -13 39 1 66 12 25 13 33 3 40 -22 13 -72 8 -96 -10z"/>
<path d="M1080 376 c-15 -15 -12 -33 6 -40 23 -9 262 -7 267 2 2 4 1 16 -2 27
-6 19 -14 20 -134 20 -70 0 -132 -4 -137 -9z"/>
</g>
</svg>
